<svg width="18" height="16" viewBox="0 0 18 16" fill="none" xmlns="http://www.w3.org/2000/svg">
<path d="M1.63636 12.8C1.18636 12.8 0.801136 12.6433 0.480682 12.33C0.160227 12.0167 0 11.64 0 11.2V1.6C0 1.16 0.160227 0.783333 0.480682 0.47C0.801136 0.156667 1.18636 0 1.63636 0H14.7273C15.1773 0 15.5625 0.156667 15.883 0.47C16.2034 0.783333 16.3636 1.16 16.3636 1.6V4.8C16.3636 5.02667 16.2852 5.21667 16.1284 5.37C15.9716 5.52333 15.7773 5.6 15.5455 5.6C15.3136 5.6 15.1193 5.52333 14.9625 5.37C14.8057 5.21667 14.7273 5.02667 14.7273 4.8V3.2L8.61136 6.94C8.54318 6.98 8.47159 7.01 8.39659 7.03C8.32159 7.05 8.25 7.06 8.18182 7.06C8.11364 7.06 8.04205 7.05 7.96705 7.03C7.89205 7.01 7.82045 6.98 7.75227 6.94L1.63636 3.2V11.2H9C9.23182 11.2 9.42614 11.2767 9.58296 11.43C9.73977 11.5833 9.81818 11.7733 9.81818 12C9.81818 12.2267 9.73977 12.4167 9.58296 12.57C9.42614 12.7233 9.23182 12.8 9 12.8H1.63636ZM8.18182 5.6L14.7273 1.6H1.63636L8.18182 5.6ZM14.7273 16C13.8273 16 13.0568 15.6867 12.4159 15.06C11.775 14.4333 11.4545 13.68 11.4545 12.8V9.2C11.4545 8.64 11.6523 8.16667 12.0477 7.78C12.4432 7.39333 12.9273 7.2 13.5 7.2C14.0727 7.2 14.5568 7.39333 14.9523 7.78C15.3477 8.16667 15.5455 8.64 15.5455 9.2V12C15.5455 12.2267 15.467 12.4167 15.3102 12.57C15.1534 12.7233 14.9591 12.8 14.7273 12.8C14.4955 12.8 14.3011 12.7233 14.1443 12.57C13.9875 12.4167 13.9091 12.2267 13.9091 12V9.2C13.9091 9.09333 13.8682 9 13.7864 8.92C13.7045 8.84 13.6091 8.8 13.5 8.8C13.3909 8.8 13.2955 8.84 13.2136 8.92C13.1318 9 13.0909 9.09333 13.0909 9.2V12.8C13.0909 13.24 13.2511 13.6167 13.5716 13.93C13.892 14.2433 14.2773 14.4 14.7273 14.4C15.1773 14.4 15.5625 14.2433 15.883 13.93C16.2034 13.6167 16.3636 13.24 16.3636 12.8V10.4C16.3636 10.1733 16.442 9.98333 16.5989 9.83C16.7557 9.67667 16.95 9.6 17.1818 9.6C17.4136 9.6 17.608 9.67667 17.7648 9.83C17.9216 9.98333 18 10.1733 18 10.4V12.8C18 13.68 17.6795 14.4333 17.0386 15.06C16.3977 15.6867 15.6273 16 14.7273 16Z" fill="#29ABE2"/>
</svg>
