<svg width="14" height="14" viewBox="0 0 14 14" fill="none" xmlns="http://www.w3.org/2000/svg">
<path d="M7 14C6.04333 14 5.13917 13.8162 4.2875 13.4487C3.43583 13.0812 2.69208 12.5796 2.05625 11.9437C1.42042 11.3079 0.91875 10.5642 0.55125 9.7125C0.18375 8.86083 0 7.95667 0 7C0 6.03167 0.18375 5.12458 0.55125 4.27875C0.91875 3.43292 1.42042 2.69208 2.05625 2.05625C2.69208 1.42042 3.43583 0.91875 4.2875 0.55125C5.13917 0.18375 6.04333 0 7 0C7.96833 0 8.87542 0.18375 9.72125 0.55125C10.5671 0.91875 11.3079 1.42042 11.9437 2.05625C12.5796 2.69208 13.0812 3.43292 13.4487 4.27875C13.8162 5.12458 14 6.03167 14 7C14 7.95667 13.8162 8.86083 13.4487 9.7125C13.0812 10.5642 12.5796 11.3079 11.9437 11.9437C11.3079 12.5796 10.5671 13.0812 9.72125 13.4487C8.87542 13.8162 7.96833 14 7 14ZM7 12.565C7.30333 12.145 7.56583 11.7075 7.7875 11.2525C8.00917 10.7975 8.19 10.3133 8.33 9.8H5.67C5.81 10.3133 5.99083 10.7975 6.2125 11.2525C6.43417 11.7075 6.69667 12.145 7 12.565ZM5.18 12.285C4.97 11.9 4.78625 11.5004 4.62875 11.0863C4.47125 10.6721 4.34 10.2433 4.235 9.8H2.17C2.50833 10.3833 2.93125 10.8908 3.43875 11.3225C3.94625 11.7542 4.52667 12.075 5.18 12.285ZM8.82 12.285C9.47333 12.075 10.0538 11.7542 10.5613 11.3225C11.0688 10.8908 11.4917 10.3833 11.83 9.8H9.765C9.66 10.2433 9.52875 10.6721 9.37125 11.0863C9.21375 11.5004 9.03 11.9 8.82 12.285ZM1.575 8.4H3.955C3.92 8.16667 3.89375 7.93625 3.87625 7.70875C3.85875 7.48125 3.85 7.245 3.85 7C3.85 6.755 3.85875 6.51875 3.87625 6.29125C3.89375 6.06375 3.92 5.83333 3.955 5.6H1.575C1.51667 5.83333 1.47292 6.06375 1.44375 6.29125C1.41458 6.51875 1.4 6.755 1.4 7C1.4 7.245 1.41458 7.48125 1.44375 7.70875C1.47292 7.93625 1.51667 8.16667 1.575 8.4ZM5.355 8.4H8.645C8.68 8.16667 8.70625 7.93625 8.72375 7.70875C8.74125 7.48125 8.75 7.245 8.75 7C8.75 6.755 8.74125 6.51875 8.72375 6.29125C8.70625 6.06375 8.68 5.83333 8.645 5.6H5.355C5.32 5.83333 5.29375 6.06375 5.27625 6.29125C5.25875 6.51875 5.25 6.755 5.25 7C5.25 7.245 5.25875 7.48125 5.27625 7.70875C5.29375 7.93625 5.32 8.16667 5.355 8.4ZM10.045 8.4H12.425C12.4833 8.16667 12.5271 7.93625 12.5562 7.70875C12.5854 7.48125 12.6 7.245 12.6 7C12.6 6.755 12.5854 6.51875 12.5562 6.29125C12.5271 6.06375 12.4833 5.83333 12.425 5.6H10.045C10.08 5.83333 10.1062 6.06375 10.1238 6.29125C10.1413 6.51875 10.15 6.755 10.15 7C10.15 7.245 10.1413 7.48125 10.1238 7.70875C10.1062 7.93625 10.08 8.16667 10.045 8.4ZM9.765 4.2H11.83C11.4917 3.61667 11.0688 3.10917 10.5613 2.6775C10.0538 2.24583 9.47333 1.925 8.82 1.715C9.03 2.1 9.21375 2.49958 9.37125 2.91375C9.52875 3.32792 9.66 3.75667 9.765 4.2ZM5.67 4.2H8.33C8.19 3.68667 8.00917 3.2025 7.7875 2.7475C7.56583 2.2925 7.30333 1.855 7 1.435C6.69667 1.855 6.43417 2.2925 6.2125 2.7475C5.99083 3.2025 5.81 3.68667 5.67 4.2ZM2.17 4.2H4.235C4.34 3.75667 4.47125 3.32792 4.62875 2.91375C4.78625 2.49958 4.97 2.1 5.18 1.715C4.52667 1.925 3.94625 2.24583 3.43875 2.6775C2.93125 3.10917 2.50833 3.61667 2.17 4.2Z" fill="#0B3681"/>
</svg>
