<svg width="20" height="20" viewBox="0 0 24 24" fill="none" xmlns="http://www.w3.org/2000/svg">
  <path d="M4 4L20 20" stroke="#A8A8A8" stroke-width="2" stroke-linecap="round"/>
  <path d="M9.5 7.1C10.25 6.8 11.08 6.65 12 6.65C16.85 6.65 20.25 8.8 22 12.05C21.35 13.25 20.45 14.3 19.35 15.15" stroke="#A8A8A8" stroke-width="2" stroke-linecap="round" stroke-linejoin="round"/>
  <path d="M14.55 14.7C13.85 15.15 12.98 15.4 12 15.4C9.65 15.4 7.75 13.5 7.75 11.15C7.75 10.2 8.05 9.3 8.6 8.6" stroke="#A8A8A8" stroke-width="2" stroke-linecap="round" stroke-linejoin="round"/>
  <path d="M5.7 8.5C4.2 9.35 3 10.55 2 12.05C3.75 15.3 7.15 17.45 12 17.45C13.65 17.45 15.15 17.2 16.5 16.7" stroke="#A8A8A8" stroke-width="2" stroke-linecap="round" stroke-linejoin="round"/>
</svg>
