<svg width="30" height="30" viewBox="0 0 30 30" fill="none" xmlns="http://www.w3.org/2000/svg">
<path d="M25.2273 2.5H4.77273H4.5C3.39543 2.5 2.5 3.39573 2.5 4.5003C2.5 4.68009 2.5 4.80746 2.5 4.83997V25.2945V25.5C2.5 26.6046 3.39572 27.5 4.50029 27.5C4.64377 27.5 4.74401 27.5 4.77272 27.5H25.2273C25.256 27.5 25.3562 27.5 25.4997 27.5C26.6043 27.5 27.5 26.6041 27.5 25.4995C27.5 25.3927 27.5 25.3188 27.5 25.2945V4.83994C27.5 4.80744 27.5 4.68008 27.5 4.5003C27.5 3.39573 26.6043 2.5 25.4997 2.5C25.3562 2.5 25.256 2.5 25.2273 2.5ZM17.2727 25.2945H4.77273V16.2036H17.2727V25.2945ZM17.2727 13.9309H4.77273V4.83997L17.2727 4.83994V13.9309ZM25.2273 25.2945H19.5455V4.83997H25.2273V25.2945Z" fill="white"/>
</svg>
