<svg width="26" height="26" viewBox="0 0 26 26" fill="none" xmlns="http://www.w3.org/2000/svg">
<mask id="mask0_439057_2406" style="mask-type:alpha" maskUnits="userSpaceOnUse" x="0" y="0" width="26" height="26">
<rect width="26" height="26" fill="#D9D9D9"/>
</mask>
<g mask="url(#mask0_439057_2406)">
<path d="M14.0833 22.75C13.7764 22.75 13.5191 22.6462 13.3115 22.4385C13.1038 22.2309 13 21.9736 13 21.6667C13 21.3597 13.1038 21.1024 13.3115 20.8948C13.5191 20.6872 13.7764 20.5833 14.0833 20.5833H20.5833V5.41667H14.0833C13.7764 5.41667 13.5191 5.31285 13.3115 5.10521C13.1038 4.89757 13 4.64028 13 4.33333C13 4.02639 13.1038 3.7691 13.3115 3.56146C13.5191 3.35382 13.7764 3.25 14.0833 3.25H20.5833C21.1792 3.25 21.6892 3.46215 22.1135 3.88646C22.5378 4.31076 22.75 4.82083 22.75 5.41667V20.5833C22.75 21.1792 22.5378 21.6892 22.1135 22.1135C21.6892 22.5378 21.1792 22.75 20.5833 22.75H14.0833ZM12.1063 14.0833H4.33333C4.02639 14.0833 3.7691 13.9795 3.56146 13.7719C3.35382 13.5642 3.25 13.3069 3.25 13C3.25 12.6931 3.35382 12.4358 3.56146 12.2281C3.7691 12.0205 4.02639 11.9167 4.33333 11.9167H12.1063L10.075 9.88542C9.87639 9.68681 9.77708 9.44306 9.77708 9.15417C9.77708 8.86528 9.87639 8.6125 10.075 8.39583C10.2736 8.17917 10.5264 8.06632 10.8333 8.05729C11.1403 8.04826 11.4021 8.15208 11.6188 8.36875L15.4917 12.2417C15.7083 12.4583 15.8167 12.7111 15.8167 13C15.8167 13.2889 15.7083 13.5417 15.4917 13.7583L11.6188 17.6313C11.4021 17.8479 11.1448 17.9517 10.8469 17.9427C10.549 17.9337 10.2917 17.8208 10.075 17.6042C9.87639 17.3875 9.7816 17.1302 9.79063 16.8323C9.79965 16.5344 9.90347 16.2861 10.1021 16.0875L12.1063 14.0833Z" fill="#CDCDCD"/>
</g>
</svg>
