<svg width="6" height="22" viewBox="0 0 6 22" fill="none" xmlns="http://www.w3.org/2000/svg">
<path d="M2.66667 21.3333C1.93333 21.3333 1.30556 21.0722 0.783333 20.55C0.261111 20.0278 0 19.4 0 18.6667C0 17.9333 0.261111 17.3056 0.783333 16.7833C1.30556 16.2611 1.93333 16 2.66667 16C3.4 16 4.02778 16.2611 4.55 16.7833C5.07222 17.3056 5.33333 17.9333 5.33333 18.6667C5.33333 19.4 5.07222 20.0278 4.55 20.55C4.02778 21.0722 3.4 21.3333 2.66667 21.3333ZM2.66667 13.3333C1.93333 13.3333 1.30556 13.0722 0.783333 12.55C0.261111 12.0278 0 11.4 0 10.6667C0 9.93333 0.261111 9.30556 0.783333 8.78333C1.30556 8.26111 1.93333 8 2.66667 8C3.4 8 4.02778 8.26111 4.55 8.78333C5.07222 9.30556 5.33333 9.93333 5.33333 10.6667C5.33333 11.4 5.07222 12.0278 4.55 12.55C4.02778 13.0722 3.4 13.3333 2.66667 13.3333ZM2.66667 5.33333C1.93333 5.33333 1.30556 5.07222 0.783333 4.55C0.261111 4.02778 0 3.4 0 2.66667C0 1.93333 0.261111 1.30556 0.783333 0.783333C1.30556 0.261111 1.93333 0 2.66667 0C3.4 0 4.02778 0.261111 4.55 0.783333C5.07222 1.30556 5.33333 1.93333 5.33333 2.66667C5.33333 3.4 5.07222 4.02778 4.55 4.55C4.02778 5.07222 3.4 5.33333 2.66667 5.33333Z" fill="white"/>
</svg>
