<svg width="21" height="20" viewBox="0 0 21 20" fill="none" xmlns="http://www.w3.org/2000/svg">
<path d="M2.1 20C1.5225 20 1.02813 19.7939 0.616875 19.3816C0.205625 18.9693 0 18.4737 0 17.8947V6.31579C0 5.73684 0.205625 5.24123 0.616875 4.82895C1.02813 4.41667 1.5225 4.21053 2.1 4.21053H6.3V2.10526C6.3 1.52632 6.50562 1.0307 6.91687 0.618421C7.32812 0.20614 7.8225 0 8.4 0H12.6C13.1775 0 13.6719 0.20614 14.0831 0.618421C14.4944 1.0307 14.7 1.52632 14.7 2.10526V4.21053H18.9C19.4775 4.21053 19.9719 4.41667 20.3831 4.82895C20.7944 5.24123 21 5.73684 21 6.31579V17.8947C21 18.4737 20.7944 18.9693 20.3831 19.3816C19.9719 19.7939 19.4775 20 18.9 20H2.1ZM2.1 17.8947H18.9V6.31579H2.1V17.8947ZM8.4 4.21053H12.6V2.10526H8.4V4.21053Z" fill="#29ABE2"/>
</svg>
