<svg width="20" height="20" viewBox="0 0 20 20" fill="none" xmlns="http://www.w3.org/2000/svg">
<mask id="mask0_294678_9764" style="mask-type:alpha" maskUnits="userSpaceOnUse" x="0" y="0" width="20" height="20">
<rect y="20" width="20" height="20" transform="rotate(-90 0 20)" fill="#D9D9D9"/>
</mask>
<g mask="url(#mask0_294678_9764)">
<path d="M13.3333 15.1457L14.8958 13.5832C15.0486 13.4304 15.2396 13.354 15.4688 13.354C15.6979 13.354 15.8958 13.4304 16.0625 13.5832C16.2292 13.7498 16.3125 13.9478 16.3125 14.1769C16.3125 14.4061 16.2292 14.604 16.0625 14.7707L13.0833 17.7498C13 17.8332 12.9097 17.8922 12.8125 17.9269C12.7153 17.9616 12.6111 17.979 12.5 17.979C12.3889 17.979 12.2847 17.9616 12.1875 17.9269C12.0903 17.8922 12 17.8332 11.9167 17.7498L8.91667 14.7498C8.75 14.5832 8.67014 14.3887 8.67708 14.1665C8.68403 13.9443 8.77083 13.7498 8.9375 13.5832C9.10417 13.4304 9.29861 13.3505 9.52083 13.3436C9.74306 13.3366 9.9375 13.4165 10.1042 13.5832L11.6667 15.1457V9.99984C11.6667 9.76373 11.7465 9.56581 11.9062 9.40609C12.066 9.24636 12.2639 9.1665 12.5 9.1665C12.7361 9.1665 12.934 9.24636 13.0938 9.40609C13.2535 9.56581 13.3333 9.76373 13.3333 9.99984V15.1457ZM8.33333 4.854V9.99984C8.33333 10.2359 8.25347 10.4339 8.09375 10.5936C7.93403 10.7533 7.73611 10.8332 7.5 10.8332C7.26389 10.8332 7.06597 10.7533 6.90625 10.5936C6.74653 10.4339 6.66667 10.2359 6.66667 9.99984L6.66667 4.854L5.10417 6.4165C4.95139 6.56928 4.76042 6.64567 4.53125 6.64567C4.30208 6.64567 4.10417 6.56928 3.9375 6.4165C3.77083 6.24984 3.6875 6.05192 3.6875 5.82275C3.6875 5.59359 3.77083 5.39567 3.9375 5.229L6.91667 2.24984C7 2.1665 7.09028 2.10748 7.1875 2.07275C7.28472 2.03803 7.38889 2.02067 7.5 2.02067C7.61111 2.02067 7.71528 2.03803 7.8125 2.07275C7.90972 2.10748 8 2.1665 8.08333 2.24984L11.0833 5.24984C11.25 5.4165 11.3299 5.61095 11.3229 5.83317C11.316 6.05539 11.2292 6.24984 11.0625 6.4165C10.8958 6.56928 10.7014 6.64914 10.4792 6.65609C10.2569 6.66303 10.0625 6.58317 9.89583 6.4165L8.33333 4.854Z" fill="#2A3647"/>
</g>
</svg>
