<svg width="22" height="22" viewBox="0 0 22 22" fill="none" xmlns="http://www.w3.org/2000/svg">
<mask id="mask0_352577_4605" style="mask-type:alpha" maskUnits="userSpaceOnUse" x="0" y="0" width="22" height="22">
<rect width="22" height="22" fill="#D9D9D9"/>
</mask>
<g mask="url(#mask0_352577_4605)">
<path d="M14.8042 11.9625L12.8334 15.125C12.6653 15.3847 12.4323 15.4916 12.1344 15.4458C11.8365 15.4 11.6493 15.2243 11.5729 14.9187L10.9313 12.3521L4.67502 18.6083C4.50696 18.7764 4.29689 18.8642 4.04481 18.8718C3.79272 18.8795 3.57502 18.7916 3.39168 18.6083C3.22363 18.4402 3.1396 18.2264 3.1396 17.9666C3.1396 17.7069 3.22363 17.493 3.39168 17.325L9.64793 11.0458L7.08127 10.4041C6.77571 10.3277 6.60002 10.1406 6.55418 9.84268C6.50835 9.54476 6.61529 9.31177 6.87502 9.14372L10.0375 7.1958L9.76252 3.46038C9.73196 3.15483 9.85418 2.9333 10.1292 2.7958C10.4042 2.6583 10.6563 2.68886 10.8854 2.88747L13.75 5.29372L17.2104 3.8958C17.5007 3.77358 17.7528 3.81941 17.9667 4.0333C18.1806 4.24719 18.2264 4.49927 18.1042 4.78955L16.7063 8.24997L19.1125 11.0916C19.3111 11.3208 19.3417 11.5729 19.2042 11.8479C19.0667 12.1229 18.8452 12.2451 18.5396 12.2146L14.8042 11.9625ZM3.07085 5.8208C2.97918 5.72913 2.93335 5.62219 2.93335 5.49997C2.93335 5.37775 2.97918 5.2708 3.07085 5.17913L4.26252 3.98747C4.35418 3.8958 4.46113 3.84997 4.58335 3.84997C4.70557 3.84997 4.81252 3.8958 4.90418 3.98747L6.09585 5.17913C6.18752 5.2708 6.23335 5.37775 6.23335 5.49997C6.23335 5.62219 6.18752 5.72913 6.09585 5.8208L4.90418 7.01247C4.81252 7.10414 4.70557 7.14997 4.58335 7.14997C4.46113 7.14997 4.35418 7.10414 4.26252 7.01247L3.07085 5.8208ZM12.7188 11.8479L13.8188 10.0375L15.95 10.1979L14.575 8.5708L15.3771 6.59997L13.4063 7.40205L11.7792 6.04997L11.9396 8.1583L10.1292 9.28122L12.1917 9.78539L12.7188 11.8479ZM16.1792 18.9291L14.9875 17.7375C14.8959 17.6458 14.85 17.5389 14.85 17.4166C14.85 17.2944 14.8959 17.1875 14.9875 17.0958L16.1792 15.9041C16.2709 15.8125 16.3778 15.7666 16.5 15.7666C16.6222 15.7666 16.7292 15.8125 16.8209 15.9041L18.0125 17.0958C18.1042 17.1875 18.15 17.2944 18.15 17.4166C18.15 17.5389 18.1042 17.6458 18.0125 17.7375L16.8209 18.9291C16.7292 19.0208 16.6222 19.0666 16.5 19.0666C16.3778 19.0666 16.2709 19.0208 16.1792 18.9291Z" fill="url(#paint0_linear_352577_4605)"/>
</g>
<defs>
<linearGradient id="paint0_linear_352577_4605" x1="2.9337" y1="10.9086" x2="19.2886" y2="10.9086" gradientUnits="userSpaceOnUse">
<stop stop-color="#9327FF"/>
<stop offset="1" stop-color="#2EA1DC"/>
</linearGradient>
</defs>
</svg>
